# xmcd
#
# Track frame offsets: 
#        150
#        22957
#        48690
#        55785
#        71222
#        82997
#        102755
#        126010
#        146467
#        165565
#        172927
#        195580
#        211277
#        217967
#        234570
#
# Disc length: 3301 seconds
#
# Revision: 0
# Processed by: cddbd v1.5.2PL0 Copyright (c) Steve Scherf et al.
# Submitted via: ExactAudioCopy v0.99pb4
#
DISCID=c90ce30f
DTITLE=Various Artist - Poem, ballader och lite blues - Återbesöket
DYEAR=2007
DGENRE=
TTITLE0=Sofia Karlsson - Ett gammalt bergtroll
TTITLE1=Miss Li - Sonja och Siw
TTITLE2=Ingvar Hirdwall - Predikan
TTITLE3=Mattias Hellberg - Elisabeth
TTITLE4=Hans Appelqvist - Hemsällen
TTITLE5=Nils Berg - En visa till Gagga - Prolog
TTITLE6=Nicolai Dunger - En visa till Gagga
TTITLE7=Dan Berglund - Ågren
TTITLE8=Dan Viktor - Hopplös blues
TTITLE9=Shima Niavarani - Skulle iagh söria såå wore iagh tokott
TTITLE10=Christian Kjellvander - Transkription till d'Artagnan
TTITLE11=Johan Berthling - Epilog
TTITLE12=Shanti Roney - Anna själv tredje
TTITLE13=Jaqee - En viss sorts samba
TTITLE14=Martin Hederos - Epilog
EXTD=
EXTT0=
EXTT1=
EXTT2=
EXTT3=
EXTT4=
EXTT5=
EXTT6=
EXTT7=
EXTT8=
EXTT9=
EXTT10=
EXTT11=
EXTT12=
EXTT13=
EXTT14=
PLAYORDER=
